HIERARCHY
ROOT Spine
{
    OFFSET 0.0 0.0 -0.0
    CHANNELS 6 Xposition Yposition Zposition Zrotation Xrotation Yrotation
    JOINT ShoulderCenter
    {
        OFFSET 0.0 28.7485408782959 0.0
        CHANNELS 3 Zrotation Xrotation Yrotation
        JOINT LeftShoulder
        {
            OFFSET 16.908462524414062 0.0 0.0
            CHANNELS 3 Zrotation Xrotation Yrotation
            JOINT LeftElbow
            {
                OFFSET 25.48190689086914 0.0 0.0
                CHANNELS 3 Zrotation Xrotation Yrotation
                JOINT LeftHand
                {
                    OFFSET 27.341909408569336 0.0 0.0
                    CHANNELS 3 Zrotation Xrotation Yrotation
                    End Site
                    {
                        OFFSET 10.93676471710205 0.0 0.0
                    }
                }
            }
        }
        JOINT RightShoulder
        {
            OFFSET -16.908462524414062 0.0 0.0
            CHANNELS 3 Zrotation Xrotation Yrotation
            JOINT RightElbow
            {
                OFFSET -25.48190689086914 0.0 0.0
                CHANNELS 3 Zrotation Xrotation Yrotation
                JOINT RightHand
                {
                    OFFSET -27.341909408569336 0.0 0.0
                    CHANNELS 3 Zrotation Xrotation Yrotation
                    End Site
                    {
                        OFFSET -10.93676471710205 0.0 0.0
                    }
                }
            }
        }
        End Site
        {
            OFFSET 0.0 11.499417304992676 0.0
        }
    }
    JOINT LeftHip
    {
        OFFSET 14.358984868242167 -14.358984868242167 0.0
        CHANNELS 3 Zrotation Xrotation Yrotation
        JOINT LeftKnee
        {
            OFFSET 0.0 -39.03428268432617 0.0
            CHANNELS 3 Zrotation Xrotation Yrotation
            JOINT LeftFoot
            {
                OFFSET 0.0 -38.532859802246094 0.0
                CHANNELS 3 Zrotation Xrotation Yrotation
                End Site
                {
                    OFFSET 0.0 0.0 15.413145065307617
                }
            }
        }
    }
    JOINT RightHip
    {
        OFFSET -14.358984868242167 -14.358984868242167 0.0
        CHANNELS 3 Zrotation Xrotation Yrotation
        JOINT RightKnee
        {
            OFFSET 0.0 -39.03428268432617 0.0
            CHANNELS 3 Zrotation Xrotation Yrotation
            JOINT RightFoot
            {
                OFFSET 0.0 -38.532859802246094 0.0
                CHANNELS 3 Zrotation Xrotation Yrotation
                End Site
                {
                    OFFSET 0.0 0.0 15.413145065307617
                }
            }
        }
    }
}
MOTION
Frames: 12
Frame Time: 0.03333333333333333
66.5 -4.300000190734863 -17.200000762939453 23.77234504525179 17.34434520235333 -69.38162856737894 -1.203613643753529e-07 -1.4558053083465126e-07 10.504530076575382 89.01595318674276 43.59068387626789 -75.21079227721299 3.681138451935858e-07 1.206967166844737e-06 152.1104609834731 6.3611093629270335e-15 0.0 0.0 -91.77702522732204 44.81333722215736 49.673918708397686 -1.1967889283643925e-06 -2.6753406562347862e-06 -132.94612620917974 0.0 0.0 6.361109362927035e-15 18.050845228781263 -59.84543852580039 64.553903312293 40.54455623018453 8.429782784532918 -70.34849218317967 0.0 0.0 -2.3854160110976376e-15 4.932860461336056 -56.28233135002285 -61.8727502950386 -34.060754852503976 21.35959268631389 72.66191148870548 -1.5902773407317584e-15 7.951386703658792e-16 -2.5842006786891076e-15
67.0 -5.200000286102295 -17.399999618530273 23.059588008573606 20.280143861475374 -65.41951665153154 9.628297605102078e-07 -1.654468008120446e-06 11.247814479106689 96.83487604765375 43.86299441321929 -83.21183873377458 5.532063397851286e-06 2.446649623595602e-07 153.95727803803672 0.0 0.0 0.0 -97.58535193924767 43.22786986379806 57.74906648184507 -2.002845812651425e-06 2.9694373145018564e-06 -134.8699012585001 0.0 0.0 -3.1805546814635168e-15 19.152812114779213 -59.686439320326095 66.11718331663636 34.85874059505106 5.379381012654507 -29.027838312158014 0.0 0.0 -1.3914926731402886e-15 3.6480938339252633 -58.83153544606514 -65.88251012753597 -38.38597915034875 21.56699188412181 75.8939333337209 -1.5902773407317582e-15 -9.517485455170654e-32 6.858071031905707e-15
67.29999542236328 -6.199999809265137 -17.899999618530273 21.679847660932232 24.38031773339231 -60.18465613433452 -1.0926722448881272e-06 -8.290040004784399e-07 13.330845343734499 104.93317549735684 41.737420889136445 -89.71903870071446 1.2693928435875351e-06 -2.7315232249845686e-06 154.46718128264374 1.2722218725854067e-14 1.5902773407317584e-15 -1.7655625192200634e-31 -100.36828144350916 43.68441246776717 65.3992754362436 2.5464391078835608e-06 -3.088663221085714e-06 -136.54806985310998 -3.1805546814635176e-15 8.827812596100317e-32 -3.1805546814635176e-15 20.45252307391585 -62.509876369458524 67.55335258460372 32.64665753743925 4.191779673585901 -15.035539296074731 1.5902773407317584e-15 -1.4908850069360234e-15 3.975693351829396e-16 3.586181785861216 -60.900742199517005 -68.54922884207177 -43.225247273488506 21.033061557485848 81.75826797049945 1.5902773407317588e-15 4.4139062980501586e-32 3.1805546814635176e-15
67.9000015258789 -7.0 -18.600000381469727 22.056443311518404 29.565128376742365 -54.119572968301604 1.0683713211271662e-06 -1.6241390976861798e-06 11.664198782702421 110.61976501033921 40.729529624153464 -93.87869369000575 -1.092322998596427e-06 2.7469307205116142e-06 153.30559795669205 -1.2722218725854067e-14 0.0 0.0 -98.85882568821195 43.10312869827119 68.17949972771126 -2.5195777058715337e-06 7.76699532129965e-06 -139.5033589425238 0.0 0.0 -3.1805546814635164e-15 19.55293390141655 -69.48776641529167 67.63799804063832 31.21678718175835 3.0133711039479443 -7.73086365542267 1.6552148617688095e-32 3.1805546814635168e-15 -5.963540027744094e-16 1.0612234447802893 -64.23104661550383 -71.95773060084846 -48.752309232660345 20.57466685786515 95.19029053627897 0.0 0.0 -1.5902773407317588e-15
68.19999694824219 -7.90000057220459 -19.600000381469727 22.158098044527414 34.007697307438875 -47.98976935002827 -8.28037200007406e-07 1.34952892980388e-06 9.838345872669871 116.533401424207 39.19159396750933 -98.63823230240757 -4.014727578802141e-06 -5.1532253128297895e-06 152.74134924562043 0.0 0.0 -6.361109362927033e-15 -97.07924736671812 42.09683658262806 71.46164370399578 -8.160652605272529e-07 6.118266301339952e-06 -142.22765520394216 0.0 0.0 0.0 16.032349000158437 -76.03572351905208 65.61853015679166 29.71853168022854 2.708597121802814 -5.328555106817314 3.975693351829396e-16 -4.6552917987247765e-33 -1.341796506242421e-15 -1.243653683380374 -65.94530027314929 -72.90453323560467 -52.57641370009176 21.402275335690685 106.7608344198762 0.0 3.3793393490549868e-15 0.0
68.0999984741211 -8.800000190734863 -20.700000762939453 21.146096131688925 37.59222061407658 -42.5306802358425 -1.1359479992335822e-06 1.6452379591570152e-06 14.391335377708993 118.08006864315018 34.325473622233105 -98.87734327091538 4.2806967470137163e-07 -1.1646907616265224e-06 152.2692317010966 -6.3611093629270335e-15 1.5902773407317584e-15 8.827812596100317e-32 -98.83410397061557 45.94339361067614 77.34819721241028 -2.887865691862422e-06 4.105753602563816e-07 -142.65364125857326 0.0 0.0 0.0 9.414161242466122 -81.0334164130172 59.574872612492655 28.585996820792705 3.1523936177839276 -4.960126194306763 3.975693351829397e-16 -4.969616689786746e-17 1.7241821476758432e-34 -2.3601127268962996 -65.6275471720314 -73.98308120889999 -53.38696903889651 21.927119149679545 111.90924814818912 3.1805546814635168e-15 0.0 0.0
68.30000305175781 -9.700000762939453 -22.0 21.655993316313907 40.27823688591377 -39.096132518419275 -1.0954600446096634e-06 -1.4254715623632246e-06 13.304621644230297 119.38537407389231 35.456022929998994 -102.33168498519045 2.7407695761936574e-06 3.579540161957183e-06 152.65229904682903 0.0 0.0 0.0 -102.56902033870152 44.16189137952579 82.28700058059313 1.4416165554010645e-06 9.139031238436184e-07 -142.78805847240292 -6.3611093629270335e-15 -1.7655625192200634e-31 3.1805546814635168e-15 -3.4153722666866035 -85.4352854934408 48.72253487794171 26.860064639985858 3.4078387310868066 -4.460529841819708 3.275946080584102e-33 1.987846675914698e-16 -1.888454342118963e-15 -3.9604623848857448 -65.53714800639811 -73.62421685706212 -50.87750682425843 22.84289224303655 107.82939306654464 2.2069531490250793e-32 -3.1805546814635164e-15 7.951386703658791e-16
69.19999694824219 -10.5 -23.600000381469727 22.599200823101796 42.27574267976799 -37.792249816491235 -1.7891584922453334e-07 8.64120754708755e-07 14.152306680852167 120.88952699159142 36.84037045513758 -106.5554798802467 -4.498810579566834e-06 2.847130418013363e-06 153.5598946073871 0.0 1.1927080055488188e-15 0.0 -102.41916153998059 44.31256274193853 82.47340087551383 -1.210520261083712e-06 -5.8800989828921795e-06 -142.19561209307304 0.0 0.0 -1.5902773407317582e-15 -46.085704739506866 -88.02862906330003 7.871969124318409 25.582857100737737 2.3640087521981985 -2.8592398865757316 -7.241565020238542e-33 -1.987846675914698e-16 -4.174478019420866e-15 -4.089267179192367 -67.70160588283713 -71.02235004179727 -48.91247160258234 24.00759298663114 100.8838433376391 1.5902773407317584e-15 3.0811623476677818e-15 -3.975693351829396e-16
69.9000015258789 -11.300000190734863 -25.200000762939453 27.050601751839903 43.02222587083388 -40.22959388057724 -1.1402629037203512e-06 8.616862845141177e-07 14.515058136799777 118.85870410822707 37.50650424857336 -108.30302421589008 -3.975945074741671e-06 -4.1885896759365764e-07 153.10075795925565 6.3611093629270335e-15 -1.987846675914698e-16 1.1034765745125397e-32 -103.76054610789033 43.43529448920158 81.10587343823804 1.2214738757818494e-06 7.80785245431339e-08 -141.26930863498316 0.0 0.0 0.0 -130.48647586218283 -87.19901238600653 -73.47248596812315 24.66789135482847 0.37572036446471013 -0.42155369230082773 -1.5902773407317584e-15 6.069121159818968e-32 -4.373262687012335e-15 -8.597833117137837 -72.39668159303464 -73.57598366530857 -50.13828889977636 24.590647043292538 96.59176133495909 -2.758691436281349e-33 1.9878466759146985e-16 1.5902773407317588e-15
70.0999984741211 -11.800000190734863 -27.000001907348633 25.58153060850075 43.67381845112823 -39.43814290734088 -9.832908901772343e-08 -7.854538113649537e-08 13.83640336013053 122.47572817184572 38.895729093034426 -113.13228097127383 -1.5784328476473424e-06 5.312963982544802e-06 153.05227871945243 0.0 -6.212020862233431e-18 0.0 -104.02049566416098 42.17675385241872 82.83131601344812 -7.23117588601883e-07 -4.660860099405654e-06 -141.2087840704069 0.0 0.0 0.0 -121.29653551680126 -87.42071628408932 -67.11100837108262 23.413665427452433 -0.9496849308111631 0.9807191319260785 -1.5902773407317584e-15 3.975693351829396e-16 -1.987846675914698e-15 -4.932611665928341 -73.20683085840534 -73.00444511545292 -49.58287365004158 22.384625138555908 91.34891215492831 0.0 0.0 -3.975693351829396e-16
70.70000457763672 -12.199999809265137 -28.60000228881836 27.669123582168496 43.61137215780066 -41.053061332592605 -2.978550942506411e-07 4.634275864049139e-06 10.612516122822562 125.32717715493453 39.1598442822568 -118.03580090511059 1.3878915971920243e-06 8.431024541164492e-07 152.95628851841127 0.0 0.0 0.0 -104.85512689855973 41.294497357289885 82.46537625010454 1.6434486449997755e-06 -5.433310726536253e-06 -141.79559598851068 0.0 0.0 0.0 -131.15687160620465 -87.08111361563267 -76.95367835237654 21.927930957505982 -2.8308004527520225 2.6808901312263806 -1.5902773407317584e-15 -3.975693351829396e-16 -7.951386703658792e-16 -4.125597069004373 -75.02956715683507 -72.82326748065648 -49.68155912031054 19.51687606379763 86.21710807993279 -1.5902773407317584e-15 -3.862168010793889e-32 2.782985346280577e-15
71.69999694824219 -12.700000762939453 -29.80000114440918 31.519098399249653 42.56444775217422 -45.07519888089063 1.062170708848956e-06 -6.889216141140302e-06 9.800402759807241 127.62632973725916 36.56500699665861 -122.58772996848188 -4.291121997240732e-06 -3.55686526734044e-06 153.5914661642435 0.0 -1.5902773407317584e-15 0.0 -101.76973186831319 44.19109880717159 80.57577124869667 5.546787997628584e-07 5.960897338569553e-07 -142.81557484082282 0.0 0.0 -3.1805546814635168e-15 -154.7877484805778 -86.27192710259541 -99.00846695757592 23.054798527575063 -4.503455067468307 4.298918583722905 1.5902773407317584e-15 -3.578124016646456e-15 5.9635400277440935e-15 -7.751965606938767 -78.65415723117334 -76.25189312520476 -51.27739881003182 18.29160270184444 80.803995023263 1.5902773407317582e-15 -1.9878466759146977e-16 5.963540027744093e-16
